Coordinates
version=1
nRows=8
nColumns=40
inDegrees=yes

Units are S.I. units (second, meters, Newtons, ...)
Angles are in degrees.

endheader
time	pelvis_tilt	pelvis_list	pelvis_rotation	pelvis_tx	pelvis_ty	pelvis_tz	hip_flexion_r	hip_adduction_r	hip_rotation_r	knee_angle_r	knee_angle_r_beta	ankle_angle_r	subtalar_angle_r	mtp_angle_r	hip_flexion_l	hip_adduction_l	hip_rotation_l	knee_angle_l	knee_angle_l_beta	ankle_angle_l	subtalar_angle_l	mtp_angle_l	lumbar_extension	lumbar_bending	lumbar_rotation	arm_flex_r	arm_add_r	arm_rot_r	elbow_flex_r	pro_sup_r	wrist_flex_r	wrist_dev_r	arm_flex_l	arm_add_l	arm_rot_l	elbow_flex_l	pro_sup_l	wrist_flex_l	wrist_dev_l
      1.78000000	      3.57738176	     -6.32719840	     -5.31062781	      0.59036574	      0.88385194	      1.03630522	     -8.00951114	      6.44687280	    -11.09700675	    -20.26856849	     -0.35375325	     14.57532635	      5.46929398	     -7.13756773	     23.54044665	     10.73049885	     14.22944345	    -18.04278485	     -0.31490600	     -5.68341643	     -1.81218982	    -10.60870561	    -10.96238623	      6.48982889	      7.21639786	     15.57651853	    -16.82682097	     14.11568387	     23.08706207	     89.95437384	      0.00000000	      0.00000000	     -8.29308821	      8.19773760	    -15.15671138	     18.24805272	     89.95437384	      0.00000000	      0.00000000
      1.79000000	      3.52843027	     -6.26231636	     -5.94313510	      0.60017493	      0.88247940	      1.03641700	     -8.51870819	      6.03641616	    -10.95026028	    -20.60141398	     -0.35956250	     14.88573588	      6.15273952	     -7.77188894	     23.47315323	     11.08296941	     16.25333453	    -16.18465558	     -0.28247553	     -6.08747632	     -2.95273569	    -10.34887232	    -10.96387912	      6.32260973	      7.71684875	     15.83643185	    -16.76388807	     14.03809738	     23.14987073	     89.95437384	      0.00000000	      0.00000000	     -8.42975074	      7.99942642	    -14.59987141	     18.04779994	     89.95437384	      0.00000000	      0.00000000
      1.80000000	      3.14507243	     -6.45925888	     -6.42432139	      0.60983894	      0.88059069	      1.03647578	     -8.73580611	      6.03800992	    -10.69977007	    -20.77844859	     -0.36265234	     14.89980281	      6.41258764	     -7.92019138	     23.81329479	     11.50551346	     17.10338040	    -14.48782091	     -0.25286018	     -5.68662113	     -3.13440545	    -10.26207296	    -10.62340778	      6.49665733	      8.01741490	     16.09501273	    -16.66975259	     14.04543344	     23.16296040	     89.95437384	      0.00000000	      0.00000000	     -8.66204696	      7.91040614	    -14.46667804	     18.06414590	     89.95437384	      0.00000000	      0.00000000
      1.81000000	      3.10416389	     -6.31126910	     -7.07718079	      0.61982402	      0.87932384	      1.03649795	     -9.20041737	      5.43363109	    -10.75972895	    -21.15568386	     -0.36923634	     14.92860740	      7.24514647	    -10.58612791	     23.62596156	     11.64151772	     18.41915460	    -12.92495488	     -0.22558302	     -5.30876838	     -3.72037262	     -8.30429030	    -10.62440907	      6.23213599	      8.46503524	     16.30605320	    -16.51022337	     13.95661988	     23.18431608	     89.95437384	      0.00000000	      0.00000000	     -8.73682292	      7.67620131	    -13.67728518	     17.79377776	     89.95437384	      0.00000000	      0.00000000
      1.82000000	      2.76673032	     -6.39078012	     -7.70245181	      0.62979994	      0.87770800	      1.03658916	     -9.43214545	      5.25859743	    -10.24742810	    -21.40047817	     -0.37350881	     14.89254966	      7.48981296	    -10.65251881	     23.83964351	     12.00095366	     19.06746837	    -11.69448607	     -0.20410729	     -4.80515896	     -3.63782888	     -8.28093257	    -10.31817893	      6.25972643	      8.88962431	     16.45032956	    -16.33970173	     13.96347546	     23.16260940	     89.95437384	      0.00000000	      0.00000000	     -8.82241610	      7.53385951	    -13.54139321	     17.58343537	     89.95437384	      0.00000000	      0.00000000
      1.83000000	      2.49686539	     -6.51352738	     -8.07488779	      0.63984159	      0.87619154	      1.03643194	     -9.78238445	      5.13883309	    -10.15420229	    -21.56390875	     -0.37636121	     14.91924060	      7.53247425	    -10.64697661	     24.18733999	     12.38290448	     19.48713991	    -11.10286130	     -0.19378149	     -4.43492877	     -3.42180874	     -8.22082441	    -10.08109399	      6.35228789	      9.03965882	     16.56798552	    -16.11673342	     13.97813288	     23.20749393	     89.95437384	      0.00000000	      0.00000000	     -8.92675294	      7.43617088	    -13.51768230	     17.45413228	     89.95437384	      0.00000000	      0.00000000
      1.84000000	      2.31473970	     -6.36454834	     -9.04580892	      0.65012776	      0.87500904	      1.03669820	    -10.06529180	      4.58645798	     -9.28455275	    -21.98755561	     -0.38375524	     14.73379714	      7.92117687	    -10.72686159	     24.11958730	     12.62821313	     20.41166350	    -10.65091403	     -0.18589352	     -3.68279903	     -2.67085097	     -8.10563172	     -9.95297104	      6.06879981	      9.74248916	     16.61468117	    -15.88867333	     14.00753875	     23.22429448	     89.95437384	      0.00000000	      0.00000000	     -9.03415997	      7.26310861	    -13.18219682	     17.36450937	     89.95437384	      0.00000000	      0.00000000
      1.85000000	      2.07795868	     -6.37180522	     -9.42861830	      0.66071716	      0.87375241	      1.03633318	    -10.45389862	      4.31225917	     -9.15174065	    -22.14026450	     -0.38642051	     14.64341225	      7.94251751	    -10.67299702	     24.36067690	     12.85826057	     20.63878783	    -10.77617435	     -0.18807972	     -3.38593772	     -2.30624447	     -8.00439465	     -9.68518465	      6.04576695	      9.90311753	     16.61128737	    -15.60131443	     14.08889320	     23.15420434	     89.95437384	      0.00000000	      0.00000000	     -9.09205471	      7.15807748	    -13.12435200	     17.22262423	     89.95437384	      0.00000000	      0.00000000
